<svg width="250" height="250" viewBox="0 0 250 250" fill="none" xmlns="http://www.w3.org/2000/svg">
<rect width="250" height="250" rx="62.5" fill="white"/>
<path d="M49.2375 160V92.8H87.3975C105.718 92.8 116.598 100.96 116.598 119.04C116.598 137.12 105.718 145.28 87.4775 145.28H71.3975V160H49.2375ZM71.3975 126.88H85.4775C90.8375 126.88 94.2775 124.24 94.2775 119.04C94.2775 113.84 90.8375 111.2 85.5575 111.2H71.3975V126.88ZM121.425 160V92.8H149.345L160.305 131.12H161.905L172.865 92.8H200.785V160H179.665V130.24H177.905L169.345 160H152.865L144.305 130.24H142.545V160H121.425Z" fill="#02060E"/>
</svg>
